# xmcd
#
# Track frame offsets:
#	150
#	18172
#	35570
#	55344
#	69873
#	84758
#	105156
#	124896
#
# Disc length: 1807 seconds
#
# Revision: 1
# Processed by: cddbd v1.4PL0 Copyright (c) Steve Scherf et al.
# Submitted via: audiograbber 1.81.02
#
DISCID=55070d08
DTITLE=Kim Hill - Hope, No Matter What
DYEAR=2003
DGENRE=Ballad
TTITLE0=Hold Me Jesus
TTITLE1=Just To Say
TTITLE2=As Big As God
TTITLE3=No Matter What
TTITLE4=Smile On You
TTITLE5=Can You See Me
TTITLE6=He'll Take Care Of You
TTITLE7=Up To The Moon
EXTD=
EXTT0=
EXTT1=
EXTT2=
EXTT3=
EXTT4=
EXTT5=
EXTT6=
EXTT7=
PLAYORDER=
